<svg xmlns="http://www.w3.org/2000/svg" style="display:none;">
    <symbol id="search-icon" viewBox="0 0 24 24">
        <circle cx="11" cy="11" r="7" 
                fill="none" 
                stroke="currentColor" 
                stroke-width="2" 
                stroke-linecap="round" 
                stroke-linejoin="round" />
        <line x1="21" y1="21" x2="16.65" y2="16.65" 
            stroke="currentColor" 
            stroke-width="2" 
            stroke-linecap="round" 
            stroke-linejoin="round" />
    </symbol>

    <symbol id="login-icon" viewBox="0 0 24 24">
        <circle cx="12" cy="7" r="4"
                fill="none"
                stroke="currentColor"
                stroke-width="2"
                stroke-linecap="round"
                stroke-linejoin="round" />
        <path d="M5 21v-2a4 4 0 0 1 4-4h6a4 4 0 0 1 4 4v2"
            fill="none"
            stroke="currentColor"
            stroke-width="2"
            stroke-linecap="round"
            stroke-linejoin="round" />
    </symbol>


    <symbol id="ring-icon" viewBox="0 0 512 512">
        <path d="M379.429,213.995c-14.739-14.776-32.171-26.934-51.474-35.669l81.691-105.941L331.762,0H180.238 
                l-77.874,72.348l81.681,105.978c-19.341,8.735-36.754,20.892-51.511,35.669c-31.536,31.536-51.128,75.247-51.128,123.42 
                c0,48.181,19.593,91.874,51.128,123.429C164.115,492.426,207.818,512,256,512c48.182,0,91.885-19.574,123.429-51.156 
                c31.573-31.555,51.166-75.248,51.166-123.429C430.594,289.242,411.002,245.53,379.429,213.995z 
                M300.722,168.628l-15.487,20.079l7.958-21.884l15.889-43.515l61.125-44.806L300.722,168.628z 
                M291.35,126.206l-13.812,37.951l-9.68,26.588l-3.423,9.342H246.47l-3.376-9.258l-9.688-26.551l-13.86-38.073H291.35z 
                M218.376,110.523l9.184-36.483h55.795l9.184,36.483H218.376z 
                M332.706,38.371l28.954,26.906l-54.336,39.868l-9.072-36.249L332.706,38.371z 
                M191.031,27.458h129.91l0.177,0.206l-34.64,30.675h-60.958l-34.64-30.722L191.031,27.458z 
                M179.294,38.371l33.546,29.703v0.037l-9.296,36.988l-53.709-39.354L179.294,38.371z 
                M143.194,80.353l58.591,42.954l15.917,43.749l6.874,18.864l-13.346-17.292L143.194,80.353z 
                M360.042,441.456c-26.672,26.635-63.36,43.076-104.042,43.076c-40.681,0-77.37-16.441-104.042-43.076 
                c-26.654-26.672-43.076-63.36-43.076-104.042c0-40.691,16.423-77.37,43.076-104.043c14-13.981,30.759-25.157,49.388-32.62 
                l14.608,18.947h80.092l14.616-18.947c18.621,7.463,35.38,18.639,49.38,32.62c26.654,26.673,43.085,63.352,43.085,104.043 
                C403.127,378.096,386.696,414.784,360.042,441.456z"
            fill="currentColor" />
        <path d="M256,233.896c-28.552,0-54.504,11.606-73.198,30.319c-18.714,18.705-30.32,44.638-30.32,73.2 
                c0,28.533,11.606,54.494,30.32,73.19c18.694,18.714,44.647,30.329,73.198,30.329c28.552,0,54.504-11.615,73.199-30.329 
                c18.704-18.695,30.32-44.656,30.32-73.19c0-28.561-11.616-54.495-30.32-73.2C310.504,245.502,284.552,233.896,256,233.896z 
                M312.542,393.967c-14.495,14.486-34.415,23.417-56.543,23.417c-22.117,0-42.037-8.931-56.543-23.417 
                c-14.505-14.524-23.427-34.434-23.427-56.552c0-22.136,8.922-42.038,23.427-56.553c14.506-14.496,34.426-23.417,56.543-23.427 
                c22.128,0.01,42.048,8.931,56.543,23.427c14.496,14.514,23.427,34.416,23.427,56.553 
                C335.97,359.533,327.038,379.452,312.542,393.967z"
            fill="currentColor" />
    </symbol>


    <symbol id="bracelet-icon" viewBox="0 0 512 512">
        <path fill="#ffffff" d="M181.072,509.659c-25.254,0-49.693-5.084-72.639-15.111c-3.919-1.713-5.707-6.277-3.995-10.196 
            c1.713-3.918,6.277-5.707,10.196-3.995c20.979,9.168,43.332,13.817,66.438,13.817c91.303,0,165.585-74.02,165.585-165.003 
            c0-9.11-0.752-18.252-2.234-27.169c-0.701-4.219,2.15-8.208,6.369-8.908c4.216-0.702,8.207,2.151,8.908,6.37 
            c1.622,9.755,2.443,19.75,2.443,29.709C362.143,428.692,280.915,509.659,181.072,509.659z"/>
        <path fill="#ffffff" d="M252.811,36.329c-2.832,0-5.559-1.558-6.92-4.259c-1.926-3.819-0.391-8.475,3.428-10.4 
            c25.443-12.826,52.9-19.33,81.61-19.33c25.252,0,49.69,5.084,72.638,15.112c3.919,1.713,5.707,6.278,3.995,10.196 
            c-1.714,3.918-6.279,5.707-10.196,3.995c-20.979-9.168-43.333-13.817-66.437-13.817c-26.267,0-51.378,5.947-74.638,17.671 
            C255.172,36.063,253.982,36.329,252.811,36.329z"/>
        <path fill="#ffffff" d="M330.929,363.317c-99.844,0-181.072-80.966-181.072-180.487c0-56.374,25.71-108.483,70.536-142.967 
            c3.392-2.607,8.254-1.973,10.86,1.417c2.607,3.39,1.974,8.251-1.415,10.859c-40.986,31.529-64.493,79.164-64.493,130.693 
            c0,90.981,74.282,165.002,165.586,165.002c91.303,0,165.585-74.02,165.585-165.002c0-25.968-5.878-50.815-17.472-73.854 
            c-1.923-3.82-0.385-8.475,3.436-10.398c3.82-1.922,8.475-0.383,10.397,3.437C505.566,127.232,512,154.422,512,182.83 
            C512,282.351,430.772,363.317,330.929,363.317z"/>
        <ellipse fill="#ffffff" cx="399.454" cy="24.148" rx="21.16" ry="21.086"/>
        <ellipse fill="#ffffff" cx="487.121" cy="105.493" rx="21.161" ry="21.086"/>
        <path fill="#ffffff" d="M26.048,414.251c-2.834,0-5.562-1.56-6.922-4.264C6.434,384.768,0,357.578,0,329.17 
            c0-99.521,81.228-180.487,181.072-180.487c76.813,0,145.494,48.516,170.905,120.724c1.421,4.033-0.698,8.455-4.732,9.874 
            c-4.036,1.419-8.455-0.699-9.875-4.733c-23.233-66.021-86.045-110.379-156.297-110.379c-91.304,0-165.586,74.02-165.586,165.002 
            c0,25.968,5.878,50.815,17.472,73.854c1.923,3.82,0.385,8.475-3.436,10.398C28.406,413.984,27.218,414.251,26.048,414.251z"/>
        <ellipse fill="#ffffff" cx="112.546" cy="487.852" rx="21.162" ry="21.086"/>
        <ellipse fill="#ffffff" cx="24.876" cy="406.507" rx="21.163" ry="21.086"/>
        <path fill="#ffffff" d="M438.45,410.052c-17.36-4.793-20.423-7.856-25.218-25.218c-0.602-2.186-2.59-3.699-4.859-3.699 
            c-2.27,0-4.257,1.513-4.859,3.699c-4.793,17.362-7.86,20.425-25.218,25.218c-2.187,0.604-3.702,2.592-3.702,4.86 
            c0,2.267,1.515,4.255,3.702,4.86c17.358,4.793,20.425,7.858,25.218,25.218c0.602,2.185,2.589,3.7,4.859,3.7 
            c2.268,0,4.257-1.515,4.859-3.7c4.795-17.361,7.858-20.425,25.218-25.218c2.187-0.605,3.699-2.593,3.699-4.86 
            C442.149,412.645,440.637,410.656,438.45,410.052z"/>
        <path fill="#ffffff" d="M141.305,71.977c-17.362-4.793-20.424-7.856-25.218-25.218c-0.603-2.186-2.591-3.699-4.86-3.699 
            c-2.27,0-4.257,1.512-4.858,3.699c-4.794,17.363-7.861,20.425-25.219,25.218c-2.186,0.605-3.701,2.592-3.701,4.861 
            c0,2.267,1.515,4.255,3.701,4.86c17.357,4.793,20.425,7.858,25.219,25.218c0.601,2.185,2.589,3.7,4.858,3.7s4.257-1.515,4.86-3.7 
            c4.794-17.361,7.856-20.425,25.218-25.218c2.186-0.605,3.698-2.592,3.698-4.86C145.004,74.569,143.491,72.582,141.305,71.977z"/>
    </symbol>


    <symbol id="necklace-icon" viewBox="0 0 512 512">
        <path fill="#ffffff" d="M392,64c-4.422,0-8,3.582-8,8c0,60.63-43.471,113.148-102.178,125.197C277.585,187.108,267.609,180,256,180
            s-21.585,7.108-25.822,17.197C171.471,185.148,128,132.63,128,72c0-4.418-3.578-8-8-8s-8,3.582-8,8
            c0,68.739,49.678,128.209,116.521,141.153c1.934,10.323,9.563,18.558,19.479,21.542v25.305
            c-13.602-7.255-31.111-4.396-41.36,8.961c-10.32,13.44-8.24,32.64,3.6,44.64l32.48,32.88c7.36,7.36,19.2,7.36,26.56,0l32.48-32.88
            c11.84-12,13.92-31.2,3.6-44.64c-10.249-13.356-27.758-16.216-41.36-8.961v-25.305c9.916-2.984,17.545-11.219,19.479-21.542
            C350.322,200.209,400,140.739,400,72C400,67.582,396.422,64,392,64z M273.04,287.2c3.12-3.12,8.16-3.2,11.36-0.08
            c3.12,3.12,3.2,8.16,0.08,11.36l-17.04,17.28c-3.04,3.12-7.12,4.8-11.44,4.8s-8.4-1.68-11.44-4.8l-17.04-17.28
            c-3.12-3.2-3.04-8.24,0.08-11.36s8.24-3.04,11.36,0.08L256,304.56L273.04,287.2z M256,220c-6.617,0-12-5.383-12-12
            s5.383-12,12-12s12,5.383,12,12S262.617,220,256,220z M264,408v32c0,4.418-3.578,8-8,8s-8-3.582-8-8v-32c0-4.418,3.578-8,8-8
            S264,403.582,264,408z M131.297,328c2.211,3.828,0.898,8.719-2.93,10.93l-27.719,16c-1.258,0.727-2.633,1.07-3.992,1.07
            c-2.766,0-5.453-1.434-6.938-4c-2.211-3.828-0.898-8.719,2.93-10.93l27.719-16C124.172,322.863,129.078,324.172,131.297,328z
            M422.281,352c-1.484,2.566-4.172,4-6.938,4c-1.359,0-2.734-0.344-3.992-1.07l-27.719-16c-3.828-2.211-5.141-7.102-2.93-10.93
            s7.102-5.137,10.93-2.93l27.719,16C423.18,343.281,424.492,348.172,422.281,352z M346.93,397.492
            c2.211,3.824,0.898,8.719-2.93,10.93c-1.258,0.727-2.633,1.07-3.992,1.07c-2.766,0-5.453-1.434-6.938-4l-8-13.855
            c-2.211-3.824-0.898-8.719,2.93-10.93c3.813-2.215,8.711-0.902,10.93,2.93L346.93,397.492z M432,256c0,4.418-3.578,8-8,8h-16
            c-4.422,0-8-3.582-8-8s3.578-8,8-8h16C428.422,248,432,251.582,432,256z M186.93,391.637l-8,13.855c-1.484,2.566-4.172,4-6.938,4
            c-1.359,0-2.734-0.344-3.992-1.07c-3.828-2.211-5.141-7.105-2.93-10.93l8-13.855c2.211-3.832,7.109-5.145,10.93-2.93
            C187.828,382.918,189.141,387.813,186.93,391.637z M104,264H88c-4.422,0-8-3.582-8-8s3.578-8,8-8h16c4.422,0,8,3.582,8,8
            S108.422,264,104,264z"/>
    </symbol>

    <symbol id="earring-icon" viewBox="0 0 513 513" fill="#ffffff">
        <svg fill="#ffffff" version="1.1" id="Layer_1" xmlns="http://www.w3.org/2000/svg" xmlns:xlink="http://www.w3.org/1999/xlink" viewBox="0 0 512 512" xml:space="preserve"><g id="SVGRepo_bgCarrier" stroke-width="0"></g><g id="SVGRepo_tracerCarrier" stroke-linecap="round" stroke-linejoin="round"></g><g id="SVGRepo_iconCarrier"> <g> <g> <path d="M194.762,410.347c-0.226-4.324-3.934-7.634-8.234-7.42c-4.323,0.226-7.643,3.911-7.42,8.234 c0.096,1.84,0.136,3.693,0.118,5.507c-0.131,3.158-0.705,10.172-1.133,12.713c-0.145,0.574-0.277,1.149-0.398,1.722 c-4.612,17.295-18.898,29.356-34.799,29.356c-16.236,0-30.635-12.418-35.02-30.196l-0.019-0.072 c-0.039-0.188-0.078-0.376-0.121-0.567c-0.376-1.905-1.028-9.43-1.173-12.954c-0.278-28.327,12.88-57.866,36.333-82.041 c14.827,15.295,25.667,32.922,31.53,51.363c1.311,4.124,5.72,6.407,9.843,5.094c4.124-1.311,6.405-5.718,5.094-9.843 c-7.354-23.145-21.57-45.039-41.108-63.317c-3.015-2.818-7.696-2.817-10.708,0.001c-30.032,28.096-47.036,64.19-46.652,99.027 c0.001,0.072,0.003,0.146,0.006,0.219c0.117,3.018,0.791,12.251,1.503,15.689c0.012,0.054,0.023,0.109,0.036,0.163l0.104,0.486 c0.013,0.059,0.024,0.116,0.039,0.174l0.047,0.194c0.01,0.045,0.021,0.091,0.031,0.136c6.116,24.797,26.773,42.118,50.238,42.118 c23.078,0,43.641-16.958,50.008-41.237c0.034-0.133,0.066-0.266,0.094-0.4c0.101-0.49,0.213-0.982,0.341-1.471 c0.048-0.182,0.089-0.366,0.123-0.551c0.652-3.511,1.296-11.904,1.428-15.303c0.003-0.073,0.005-0.146,0.006-0.219 C194.922,414.774,194.877,412.552,194.762,410.347z"></path> </g> </g> <g> <g> <path d="M177.21,295.784c2.711-2.393,4.435-5.883,4.435-9.776v-31.155c0-6.604-4.933-12.063-11.304-12.923 c1.398-3.401,2.172-7.117,2.172-11.009c0-7.775-3.08-14.846-8.084-20.099c5.006-5.254,8.084-12.328,8.084-20.104 c0-13.483-9.24-24.863-21.777-28.276v-23.577c12.537-3.446,21.777-14.938,21.777-28.554c0-5.119-1.315-9.934-3.612-14.138 c4.994-2.915,9.524-6.674,13.361-11.196c2.8-3.3,2.395-8.245-0.906-11.045c-3.299-2.8-8.245-2.395-11.045,0.906 c-6.848,8.072-16.84,12.701-27.411,12.701c-19.814,0-35.935-16.12-35.935-35.934c0-19.813,16.121-35.933,35.935-35.933 c19.813,0,35.933,16.12,35.933,35.933c0,1.465-0.09,2.945-0.265,4.397c-0.521,4.297,2.54,8.202,6.836,8.724 c4.286,0.519,8.203-2.539,8.724-6.836c0.252-2.076,0.379-4.191,0.379-6.285C194.505,23.15,171.355,0,142.898,0 C114.442,0,91.29,23.15,91.29,51.606c0,18.981,10.308,35.59,25.613,44.554c-2.302,4.207-3.62,9.026-3.62,14.151 c0,13.616,9.241,25.109,21.779,28.554v23.577c-12.538,3.412-21.779,14.792-21.779,28.276c0,7.776,3.078,14.85,8.085,20.104 c-5.005,5.253-8.085,12.324-8.085,20.099c0,3.893,0.774,7.607,2.172,11.009c-6.373,0.859-11.305,6.32-11.305,12.923v31.155 c0,3.894,1.722,7.385,4.436,9.779c-34.483,34.174-54.645,78.66-54.031,122.042c0.029,1.373,0.737,15.398,2.347,22.744 c0.043,0.235,0.12,0.657,0.146,0.785c0.099,0.499,0.226,0.988,0.376,1.462C67.621,483.569,102.722,512,142.898,512 c40.585,0,75.83-28.851,85.711-70.16c0.032-0.137,0.062-0.273,0.087-0.41c0.063-0.246,0.118-0.492,0.168-0.736 c1.56-6.989,2.265-19.845,2.364-22.526c0.008-0.133,0.014-0.266,0.016-0.401C231.854,374.434,211.692,329.958,177.21,295.784z M128.957,110.311c0-3.122,1.045-5.999,2.786-8.326c3.595,0.795,7.326,1.228,11.156,1.228c3.792,0,7.532-0.415,11.163-1.217 c1.736,2.325,2.777,5.197,2.777,8.315c0,7.686-6.253,13.941-13.94,13.941C135.211,124.252,128.957,117.998,128.957,110.311z M142.898,177.066c7.686,0,13.94,6.124,13.94,13.652c0,7.527-6.253,13.651-13.94,13.651c-7.687,0-13.942-6.123-13.942-13.651 C128.957,183.19,135.211,177.066,142.898,177.066z M156.838,230.921c0,4.442-2.187,8.383-5.552,10.877H134.51 c-3.366-2.495-5.553-6.436-5.553-10.877c0-4.99,2.757-9.353,6.851-11.733c2.274,0.555,4.646,0.855,7.09,0.855 c2.443,0,4.816-0.3,7.089-0.855C154.08,221.569,156.838,225.931,156.838,230.921z M119.824,257.472h46.146v25.918h-46.146V257.472 z M215.569,417.492c-0.051,2.389-0.822,14.569-2.012,19.841c-0.016,0.067-0.029,0.133-0.043,0.198 c-0.012,0.06-0.027,0.114-0.043,0.165c-0.115,0.374-0.202,0.752-0.259,1.133c-8.393,33.886-37.217,57.498-70.313,57.498 c-33.055,0-61.978-23.681-70.337-57.585c-0.049-0.197-0.104-0.391-0.168-0.584c-0.04-0.213-0.095-0.52-0.096-0.526 c-0.02-0.108-0.041-0.215-0.066-0.323c-1.178-5.258-1.955-17.437-2.008-19.759c-0.599-42.49,21.181-86.407,57.813-118.487h29.72 c36.561,32.019,58.33,75.831,57.819,118.242C215.572,417.367,215.57,417.429,215.569,417.492z"></path> </g> </g> <g> <g> <path d="M142.898,28.098c-12.962,0-23.508,10.545-23.508,23.508c0,12.962,10.546,23.508,23.508,23.508 c12.962,0,23.508-10.546,23.508-23.508C166.406,38.645,155.86,28.098,142.898,28.098z M142.898,59.441 c-4.321,0-7.835-3.514-7.835-7.835c0-4.321,3.514-7.835,7.835-7.835c4.321,0,7.835,3.514,7.835,7.835 C150.733,55.927,147.219,59.441,142.898,59.441z"></path> </g> </g> <g> <g> <path d="M369.099,28.098c-12.962,0-23.508,10.546-23.508,23.508c0,12.962,10.546,23.508,23.508,23.508 c12.962,0,23.508-10.546,23.508-23.508C392.607,38.645,382.061,28.098,369.099,28.098z M369.099,59.441 c-4.321,0-7.835-3.515-7.835-7.835c0-4.321,3.514-7.835,7.835-7.835c4.321,0,7.835,3.514,7.835,7.835 C376.934,55.927,373.419,59.441,369.099,59.441z"></path> </g> </g> <g> <g> <path d="M374.455,317.926c-3.015-2.818-7.696-2.817-10.708,0.001c-30.031,28.095-47.035,64.19-46.652,99.027 c0.001,0.073,0.003,0.146,0.006,0.219c0.117,3.018,0.791,12.252,1.503,15.689c0.011,0.054,0.023,0.109,0.036,0.162l0.104,0.487 c0.013,0.059,0.024,0.116,0.038,0.173l0.048,0.194c0.01,0.046,0.021,0.091,0.031,0.137c6.116,24.797,26.772,42.118,50.237,42.118 c23.078,0,43.642-16.958,50.009-41.237c0.034-0.133,0.067-0.266,0.094-0.4c0.101-0.49,0.213-0.982,0.341-1.471 c0.048-0.183,0.089-0.368,0.123-0.553c0.653-3.518,1.296-11.907,1.428-15.299c0.003-0.073,0.005-0.146,0.006-0.219 C421.487,382.111,404.484,346.017,374.455,317.926z M404.296,429.383c-0.145,0.573-0.277,1.148-0.398,1.722 c-4.612,17.295-18.898,29.356-34.8,29.356c-16.235,0-30.634-12.418-35.019-30.197l-0.019-0.072 c-0.039-0.188-0.078-0.376-0.121-0.567c-0.376-1.903-1.028-9.43-1.173-12.954c-0.278-28.329,12.877-57.867,36.333-82.042 c23.451,24.17,36.606,53.708,36.329,82.04C405.298,419.819,404.725,426.835,404.296,429.383z"></path> </g> </g> <g> <g> <path d="M441.579,348.917c-1.87-3.904-6.552-5.553-10.453-3.683c-3.903,1.869-5.554,6.549-3.683,10.453 c9.622,20.093,14.576,41.394,14.334,61.617c-0.003,0.064-0.005,0.126-0.006,0.19c-0.051,2.389-0.822,14.568-2.014,19.839 c-0.016,0.066-0.029,0.133-0.043,0.2c-0.014,0.067-0.031,0.13-0.049,0.189c-0.112,0.366-0.196,0.737-0.252,1.111 c-8.393,33.884-37.218,57.494-70.314,57.494c-33.054,0-61.978-23.681-70.336-57.585c-0.049-0.197-0.106-0.392-0.168-0.584 c-0.04-0.213-0.095-0.52-0.096-0.526c-0.02-0.108-0.041-0.215-0.066-0.323c-1.179-5.261-1.956-17.437-2.009-19.759 c-0.598-42.49,21.184-86.407,57.814-118.487h29.722c11.487,10.046,21.603,21.312,30.154,33.696 c2.459,3.56,7.339,4.456,10.902,1.996c3.561-2.459,4.455-7.339,1.996-10.902c-6.946-10.06-14.838-19.436-23.577-28.089 c2.698-2.394,4.409-5.874,4.409-9.756v-31.155c0-6.604-4.932-12.063-11.304-12.923c1.397-3.401,2.172-7.117,2.172-11.009 c0-7.775-3.079-14.846-8.084-20.099c5.006-5.254,8.084-12.328,8.084-20.104c0-4.329-3.509-7.837-7.837-7.837 c-4.329,0-7.837,3.508-7.837,7.837c0,7.527-6.254,13.651-13.941,13.651c-7.687,0-13.941-6.123-13.941-13.651 c0-7.527,6.254-13.652,13.941-13.652c2.523,0,4.992,0.665,7.14,1.923c3.734,2.189,8.536,0.933,10.723-2.802 c2.188-3.734,0.933-8.535-2.802-10.723c-2.266-1.328-4.698-2.343-7.223-3.028v-23.572c12.537-3.445,21.778-14.938,21.778-28.554 c0-5.125-1.318-9.944-3.621-14.151c15.305-8.964,25.613-25.574,25.613-44.554C420.705,23.15,397.555,0,369.099,0 c-28.457,0-51.609,23.15-51.609,51.607c0,18.982,10.308,35.591,25.614,44.554c-2.302,4.207-3.62,9.026-3.62,14.151 c0,13.616,9.241,25.109,21.778,28.554v23.577c-12.537,3.412-21.778,14.792-21.778,28.276c0,7.776,3.078,14.85,8.084,20.104 c-5.005,5.253-8.084,12.324-8.084,20.099c0,3.893,0.775,7.607,2.172,11.009c-6.373,0.859-11.305,6.32-11.305,12.923v31.155 c0,3.894,1.722,7.385,4.436,9.779c-34.483,34.174-54.644,78.66-54.032,122.042c0.029,1.373,0.737,15.393,2.347,22.744 c0.043,0.234,0.121,0.658,0.147,0.784c0.099,0.498,0.225,0.99,0.376,1.463c10.196,40.749,45.296,69.18,85.473,69.18 c40.585,0,75.831-28.851,85.712-70.16c0.033-0.139,0.063-0.279,0.088-0.418c0.062-0.242,0.116-0.485,0.166-0.728 c1.561-6.991,2.266-19.848,2.365-22.526c0.008-0.132,0.014-0.265,0.016-0.399C457.765,395.07,452.278,371.261,441.579,348.917z M333.164,51.606c0-19.813,16.121-35.933,35.935-35.933c19.813,0,35.933,16.12,35.933,35.933c0,19.814-16.12,35.934-35.933,35.934 C349.284,87.539,333.164,71.421,333.164,51.606z M355.158,110.311c0-3.122,1.045-5.999,2.786-8.326 c3.594,0.795,7.325,1.228,11.155,1.228s7.56-0.433,11.155-1.228c1.741,2.327,2.786,5.203,2.786,8.326 c0,7.686-6.254,13.941-13.941,13.941C361.412,124.252,355.158,117.998,355.158,110.311z M362.009,219.188 c2.274,0.555,4.647,0.855,7.09,0.855c2.443,0,4.816-0.3,7.09-0.855c4.093,2.38,6.851,6.743,6.851,11.733 c0,4.442-2.188,8.383-5.554,10.877h-16.776c-3.366-2.495-5.553-6.436-5.553-10.877 C355.158,225.931,357.916,221.569,362.009,219.188z M346.025,257.472h46.146v25.918h-46.146V257.472z"></path> </g> </g> </g></svg>
    </symbol>
</svg>
